<?xml version="1.0" standalone="no"?><!DOCTYPE svg PUBLIC "-//W3C//DTD SVG 1.1//EN" "http://www.w3.org/Graphics/SVG/1.1/DTD/svg11.dtd"><svg t="1665563104857" class="icon" viewBox="0 0 1024 1024" version="1.1" xmlns="http://www.w3.org/2000/svg" p-id="2575" xmlns:xlink="http://www.w3.org/1999/xlink" width="200" height="200"><path d="M439.665452 337.631069a45.343562 45.343562 0 0 0-40.320077-30.405304h-90.026138a45.607956 45.607956 0 0 0-40.584471 30.801895L28.79726 962.922751A44.418183 44.418183 0 0 0 33.291957 1004.696995a43.096213 43.096213 0 0 0 35.957577 19.300758h55.522728a42.964016 42.964016 0 0 0 40.981062-28.81894l48.91288-141.847352h279.332204l51.95341 142.640533a42.964016 42.964016 0 0 0 40.716668 28.025759h59.356441a43.492804 43.492804 0 0 0 39.659092-60.017426z m-181.638641 396.590919l94.388639-262.146598L448.654846 733.825397z m738.848882-267.831067c-1.189773-4.494697-2.247349-8.857197-3.04053-13.219698a528.787892 528.787892 0 0 1-6.609849-99.147729l1.454167-157.446595c0-58.695456-5.948864-98.883336-17.846592-120.828033a133.915534 133.915534 0 0 0-61.603789-54.332956C879.881372 7.270834 835.463189 0 775.57796 0c-66.098486 0-115.143563 12.029925-148.589397 35.560986a164.849625 164.849625 0 0 0-48.119699 54.200759 42.435228 42.435228 0 0 0-1.586363 39.659092 41.90644 41.90644 0 0 0 31.595076 24.588637l36.089774 6.609848a43.625001 43.625001 0 0 0 45.740153-20.622728 74.162502 74.162502 0 0 1 20.887121-23.002273 98.751139 98.751139 0 0 1 56.976896-13.748485c70.460987 0 93.331063 20.09394 93.331063 72.179547v13.219697a1135.175407 1135.175407 0 0 1-132.196973 33.181441A477.495466 477.495466 0 0 0 620.510911 253.421597a138.278034 138.278034 0 0 0-77.996214 128.892049 143.433716 143.433716 0 0 0 45.079168 108.401518c30.008713 28.290152 71.121971 42.831819 123.207578 42.831819a210.06099 210.06099 0 0 0 83.41629-16.260228 241.52387 241.52387 0 0 0 73.36932-49.573865c2.247349 6.213258 7.535227 27.364773 7.270834 26.439395A46.401138 46.401138 0 0 0 916.63213 528.787892h38.204926a45.740153 45.740153 0 0 0 34.50341-20.887122 51.160229 51.160229 0 0 0 7.535227-41.509849zM861.902584 304.053038a237.954551 237.954551 0 0 1-7.270834 66.098486 108.533715 108.533715 0 0 1-103.113639 68.610229 70.725381 70.725381 0 0 1-73.765911-69.667804c0-45.607956 37.940531-57.505683 100.337503-70.989775 37.147349-7.931818 66.098486-14.938258 83.812881-20.622728z" fill="#1296db" p-id="2576"></path></svg>